<svg xmlns="http://www.w3.org/2000/svg" viewBox="0 0 19.53 19.52"><title>Recurso 3</title><path d="M13.48,19.52V12H16c.13-1,.25-2,.38-2.93h-2.9V7.44c0-.61,0-1.16.35-1.44a1.15,1.15,0,0,1,.5-.24,3.69,3.69,0,0,1,.91-.06h1.24V3.08L15.94,3l-.47,0-.81,0H14l-.44,0a5.36,5.36,0,0,0-1,.27,3.34,3.34,0,0,0-2.06,2.6,7,7,0,0,0-.09,1.45V9H7.88V12h2.54v7.56H1.56a3.36,3.36,0,0,1-.71,0A1.15,1.15,0,0,1,.16,19,2.89,2.89,0,0,1,0,17.66V1.31A3.31,3.31,0,0,0,0,.94,1,1,0,0,1,.63.11,4.18,4.18,0,0,1,2,0H18.21a1.79,1.79,0,0,1,.4,0,1.11,1.11,0,0,1,.83.64A4.34,4.34,0,0,1,19.52,2V18.24a2.06,2.06,0,0,1,0,.42,1.13,1.13,0,0,1-.24.48c-.37.45-1,.37-1.77.37Z" fill="#fff"/></svg>