<svg viewBox="0 0 18.91 18.88" xmlns="http://www.w3.org/2000/svg"><g fill="#fff"><path d="m17.21 8v4.2 1a8 8 0 0 1 -.3 1.73 3.24 3.24 0 0 1 -1.42 1.7c-1.16.68-3.25.55-5.05.55-2.39 0-5.75.29-7.18-.7-2-1.37-1.51-5.08-1.51-8.38a12.48 12.48 0 0 1 .46-4.48 3.44 3.44 0 0 1 2.79-1.83l1.77-.09h5.39a22.84 22.84 0 0 1 2.58.24 3.37 3.37 0 0 1 1.66 1.12c.83 1.09.81 3 .81 4.92m1.69.6c0-2.27 0-4.57-.78-6a5 5 0 0 0 -3-2.31 20 20 0 0 0 -2.49-.27h-6.35l-1.75.14a5 5 0 0 0 -3.94 2.86 14.49 14.49 0 0 0 -.59 5.25c0 4.8-.4 8.57 3.06 10.06a10.74 10.74 0 0 0 2.75.54h1.28 3.7a13.85 13.85 0 0 0 5-.58c3.37-1.45 3-5 3-9.71"/><path d="m14.33 3.29a1.14 1.14 0 1 1 -.93.77c.17-.47.48-.57.93-.77"/><path d="m12.39 10.63a3.16 3.16 0 1 1 -4-4.18l.79-.17c2.27 0 4.17 2 3.18 4.35m-3.12-6-.57.06-1 .25a5 5 0 0 0 -2.8 2.91 4.86 4.86 0 0 0 2.56 6 3.94 3.94 0 0 0 2.21.45l1-.14a4.85 4.85 0 0 0 -1.37-9.57"/></g></svg>