<svg viewBox="0 0 79.57 61.33" xmlns="http://www.w3.org/2000/svg"><g fill="none" stroke="#00f" stroke-width="2.11"><path d="m.48 1.06h78"/><path d="m.48 5.03h78"/><path d="m1.23 59.6 6.53-6.51 6.35 6.32 6.26-6.24 6.52 6.49 6.46-6.43 6.26 6.23 6.28-6.26 6.35 6.39 6.27-6.24 6.51 6.49 6.46-6.43 6.26 6.23"/></g><path d="m14.06 16.55c-1.34 0-2.43.05-3.23.1l-2 10.69a21.52 21.52 0 0 0 2.43.1c4.67 0 8.25-2.6 8.25-6.89 0-2.7-1.59-4-5.46-4m-.3 14.29c.7 1.1 1.34 2.4 2 3.65l6.45 11.51h-6.45l-7.45-14.57h-.3l-2.68 14.57h-5.32l6.36-33.7c2.43-.15 5.16-.2 8.59-.2 7.05 0 10.18 2.75 10.18 7.54 0 6.24-4.82 10.19-11.37 11.19" fill="#00f"/><path d="m41.28 16.55c-1.34 0-2.43.05-3.23.1l-2 10.69a21.51 21.51 0 0 0 2.43.1c4.67 0 8.24-2.6 8.24-6.89 0-2.7-1.59-4-5.46-4m-.26 14.28c.69 1.1 1.34 2.4 2 3.65l6.42 11.52h-6.42l-7.49-14.57h-.25l-2.73 14.57h-5.31l6.36-33.7c2.43-.15 5.16-.2 8.59-.2 7.05 0 10.18 2.75 10.18 7.54 0 6.24-4.82 10.19-11.37 11.19" fill="#00f"/><path d="m68.49 16.55c-1.34 0-2.43.05-3.23.1l-2 10.69a21.49 21.49 0 0 0 2.43.1c4.67 0 8.25-2.6 8.25-6.89 0-2.7-1.59-4-5.46-4m-.3 14.29c.7 1.1 1.34 2.4 2 3.65l6.46 11.51h-6.46l-7.45-14.57h-.25l-2.73 14.57h-5.32l6.36-33.7c2.43-.15 5.17-.2 8.59-.2 7.06 0 10.19 2.75 10.19 7.54 0 6.24-4.82 10.19-11.38 11.19" fill="#00f"/></svg>